<mxfile host="app.diagrams.net" modified="2023-05-23T03:58:04.007Z" agent="Mozilla/5.0 (Windows NT 10.0; WOW64) AppleWebKit/537.36 (KHTML, like Gecko) Chrome/105.0.0.0 Safari/537.36" version="21.1.2" etag="qQsh8p3vho6MDyzRyIXJ" type="github">
  <diagram name="第 1 页" id="VjMqQebdwBGkL-KfhFEe">
    <mxGraphModel>
      <root>
        <mxCell id="0" />
        <mxCell id="1" parent="0" />
      </root>
    </mxGraphModel>
  </diagram>
</mxfile>
